<svg width="178" height="16" viewBox="0 0 178 16" fill="none" xmlns="http://www.w3.org/2000/svg">
<path d="M20.4968 16H18.2545C17.3128 16 16.8323 15.7882 16.4863 15.3182C16.1148 14.8217 16.1148 14.0604 16.1148 13.3455V0.0065732H18.9977V13.7758C18.9977 14.868 19.113 15.6425 20.4904 15.9537V16H20.4968Z" fill="#2E2E2E"/>
<path d="M14.6031 15.9934H10.9962L8.34388 10.1306C6.89601 10.932 6.06956 12.7822 4.60247 14.007C3.85291 14.6324 2.98162 15.1862 1.89251 15.564C1.39921 15.7334 0.559951 15.9549 0.246031 15.9875C0.111494 16.0005 0.0218023 15.994 0.00258273 15.9484C-0.0102303 15.9093 0.0218023 15.8833 0.162746 15.8116C0.322909 15.7334 0.982781 15.4533 1.39921 15.1601C1.91813 14.7888 2.21283 14.3914 2.23846 14.0852C2.09752 13.577 1.07888 12.4434 2.11674 10.3652C2.48832 9.61596 2.80864 9.08174 3.03928 8.541C3.30194 7.92209 3.49414 7.04909 3.55821 6.39761C3.56461 6.35852 3.57102 6.35852 3.59024 6.38458C4.09635 6.90577 6.05675 8.95144 5.76846 10.9906C6.42192 10.7365 7.54947 9.96124 8.0684 9.55081C8.61936 9.11431 8.97813 8.66478 9.56112 8.65175C10.08 8.64524 10.1249 8.89932 10.5413 8.95144C10.6438 8.96447 10.7976 8.94492 10.8745 8.90583C10.9065 8.8928 10.9001 8.85371 10.8488 8.84068C10.2851 8.70387 10.1441 8.2348 9.41377 8.2348C8.76031 8.2348 8.23497 8.8472 7.85698 9.10128L6.0055 5.17933C5.23672 3.53758 5.46735 2.34535 7.17149 0L14.6031 15.9934Z" fill="#2E2E2E"/>
<path d="M26 16H23.7577C22.816 16 22.3355 15.7882 21.9895 15.3182C21.6179 14.8217 21.6179 14.0604 21.6179 13.3455V0.0065732H24.5009V13.7758C24.5009 14.868 24.6162 15.6425 25.9936 15.9537V16H26Z" fill="#2E2E2E"/>
<path d="M39.5448 10.2793H36.2355L35.5432 12.2656H34L37.2271 3.73438H38.5591L41.7921 12.2656H40.2431L39.5448 10.2793ZM36.6521 9.08398H39.1282L37.8902 5.54492L36.6521 9.08398Z" fill="#2E2E2E"/>
<path d="M49.997 9.48828C49.9109 10.3984 49.5745 11.1094 48.9878 11.6211C48.401 12.1289 47.6207 12.3828 46.6466 12.3828C45.966 12.3828 45.3656 12.2227 44.8453 11.9023C44.329 11.5781 43.93 11.1191 43.6483 10.5254C43.3667 9.93164 43.22 9.24219 43.2083 8.45703V7.66016C43.2083 6.85547 43.351 6.14648 43.6366 5.5332C43.9222 4.91992 44.3309 4.44727 44.8629 4.11523C45.3988 3.7832 46.0169 3.61719 46.7171 3.61719C47.6598 3.61719 48.4186 3.87305 48.9937 4.38477C49.5687 4.89648 49.9031 5.61914 49.997 6.55273H48.5184C48.448 5.93945 48.268 5.49805 47.9786 5.22852C47.693 4.95508 47.2725 4.81836 46.7171 4.81836C46.0716 4.81836 45.5748 5.05469 45.2267 5.52734C44.8825 5.99609 44.7064 6.68555 44.6986 7.5957V8.35156C44.6986 9.27344 44.8629 9.97656 45.1915 10.4609C45.524 10.9453 46.009 11.1875 46.6466 11.1875C47.2295 11.1875 47.6676 11.0566 47.961 10.7949C48.2543 10.5332 48.4401 10.0977 48.5184 9.48828H49.997Z" fill="#2E2E2E"/>
<path d="M58.6889 9.48828C58.6029 10.3984 58.2665 11.1094 57.6797 11.6211C57.093 12.1289 56.3126 12.3828 55.3386 12.3828C54.6579 12.3828 54.0575 12.2227 53.5372 11.9023C53.0209 11.5781 52.6219 11.1191 52.3403 10.5254C52.0586 9.93164 51.9119 9.24219 51.9002 8.45703V7.66016C51.9002 6.85547 52.043 6.14648 52.3285 5.5332C52.6141 4.91992 53.0228 4.44727 53.5548 4.11523C54.0907 3.7832 54.7088 3.61719 55.409 3.61719C56.3517 3.61719 57.1106 3.87305 57.6856 4.38477C58.2606 4.89648 58.595 5.61914 58.6889 6.55273H57.2103C57.1399 5.93945 56.96 5.49805 56.6705 5.22852C56.3849 4.95508 55.9644 4.81836 55.409 4.81836C54.7635 4.81836 54.2668 5.05469 53.9186 5.52734C53.5744 5.99609 53.3984 6.68555 53.3905 7.5957V8.35156C53.3905 9.27344 53.5548 9.97656 53.8834 10.4609C54.2159 10.9453 54.701 11.1875 55.3386 11.1875C55.9214 11.1875 56.3595 11.0566 56.6529 10.7949C56.9463 10.5332 57.1321 10.0977 57.2103 9.48828H58.6889Z" fill="#2E2E2E"/>
<path d="M67.6801 8.22266C67.6801 9.05859 67.5354 9.79297 67.2459 10.4258C66.9564 11.0547 66.5418 11.5391 66.002 11.8789C65.4661 12.2148 64.848 12.3828 64.1478 12.3828C63.4555 12.3828 62.8374 12.2148 62.2937 11.8789C61.7539 11.5391 61.3353 11.0566 61.0381 10.4316C60.7447 9.80664 60.596 9.08594 60.5921 8.26953V7.78906C60.5921 6.95703 60.7388 6.22266 61.0322 5.58594C61.3295 4.94922 61.7461 4.46289 62.282 4.12695C62.8218 3.78711 63.4398 3.61719 64.1361 3.61719C64.8324 3.61719 65.4485 3.78516 65.9844 4.12109C66.5242 4.45312 66.9408 4.93359 67.2342 5.5625C67.5275 6.1875 67.6762 6.91602 67.6801 7.74805V8.22266ZM66.1956 7.77734C66.1956 6.83203 66.0157 6.10742 65.6558 5.60352C65.2998 5.09961 64.7933 4.84766 64.1361 4.84766C63.4946 4.84766 62.9919 5.09961 62.6282 5.60352C62.2683 6.10352 62.0844 6.8125 62.0766 7.73047V8.22266C62.0766 9.16016 62.2585 9.88477 62.6223 10.3965C62.99 10.9082 63.4985 11.1641 64.1478 11.1641C64.805 11.1641 65.3096 10.9141 65.6617 10.4141C66.0176 9.91406 66.1956 9.18359 66.1956 8.22266V7.77734Z" fill="#2E2E2E"/>
<path d="M73.139 8.97852H71.4844V12.2656H69.9999V3.73438H73.0041C73.9898 3.73438 74.7506 3.95508 75.2865 4.39648C75.8224 4.83789 76.0904 5.47656 76.0904 6.3125C76.0904 6.88281 75.9515 7.36133 75.6738 7.74805C75.4 8.13086 75.0166 8.42578 74.5238 8.63281L76.4424 12.1895V12.2656H74.8523L73.139 8.97852ZM71.4844 7.78906H73.0099C73.5106 7.78906 73.9018 7.66406 74.1834 7.41406C74.4651 7.16016 74.6059 6.81445 74.6059 6.37695C74.6059 5.91992 74.4749 5.56641 74.2128 5.31641C73.9546 5.06641 73.5673 4.9375 73.051 4.92969H71.4844V7.78906Z" fill="#2E2E2E"/>
<path d="M83.6579 11.082H87.5363V12.2656H82.1734V3.73438H83.6579V11.082Z" fill="#2E2E2E"/>
<path d="M91.0824 12.2656H89.6038V3.73438H91.0824V12.2656Z" fill="#2E2E2E"/>
<path d="M96.7584 10.4082L98.9294 3.73438H100.561L97.486 12.2656H96.0484L92.9856 3.73438H94.6109L96.7584 10.4082Z" fill="#2E2E2E"/>
<path d="M107.363 8.45703H103.854V11.082H107.956V12.2656H102.37V3.73438H107.915V4.92969H103.854V7.28516H107.363V8.45703Z" fill="#2E2E2E"/>
<path d="M115.324 11.082H119.202V12.2656H113.839V3.73438H115.324V11.082Z" fill="#2E2E2E"/>
<path d="M122.748 12.2656H121.27V3.73438H122.748V12.2656Z" fill="#2E2E2E"/>
<path d="M127.339 3.73438L129.803 10.2734L132.262 3.73438H134.18V12.2656H132.702V9.45312L132.848 5.69141L130.325 12.2656H129.263L126.746 5.69727L126.893 9.45312V12.2656H125.414V3.73438H127.339Z" fill="#2E2E2E"/>
<path d="M138.348 12.2656H136.87V3.73438H138.348V12.2656Z" fill="#2E2E2E"/>
<path d="M147.011 4.92969H144.347V12.2656H142.874V4.92969H140.234V3.73438H147.011V4.92969Z" fill="#2E2E2E"/>
<path d="M150.463 11.082H154.342V12.2656H148.979V3.73438H150.463V11.082Z" fill="#2E2E2E"/>
<path d="M161.314 8.45703H157.806V11.082H161.907V12.2656H156.321V3.73438H161.866V4.92969H157.806V7.28516H161.314V8.45703Z" fill="#2E2E2E"/>
<path d="M168.422 10.0684C168.422 9.69336 168.289 9.4043 168.023 9.20117C167.761 8.99805 167.286 8.79297 166.597 8.58594C165.909 8.37891 165.361 8.14844 164.954 7.89453C164.176 7.40625 163.787 6.76953 163.787 5.98438C163.787 5.29688 164.066 4.73047 164.626 4.28516C165.189 3.83984 165.919 3.61719 166.814 3.61719C167.409 3.61719 167.939 3.72656 168.404 3.94531C168.87 4.16406 169.236 4.47656 169.502 4.88281C169.768 5.28516 169.901 5.73242 169.901 6.22461H168.422C168.422 5.7793 168.281 5.43164 168 5.18164C167.722 4.92773 167.323 4.80078 166.803 4.80078C166.318 4.80078 165.94 4.9043 165.67 5.11133C165.404 5.31836 165.271 5.60742 165.271 5.97852C165.271 6.29102 165.416 6.55273 165.705 6.76367C165.995 6.9707 166.472 7.17383 167.137 7.37305C167.802 7.56836 168.336 7.79297 168.739 8.04688C169.142 8.29688 169.437 8.58594 169.625 8.91406C169.813 9.23828 169.907 9.61914 169.907 10.0566C169.907 10.7676 169.633 11.334 169.085 11.7559C168.541 12.1738 167.802 12.3828 166.867 12.3828C166.249 12.3828 165.68 12.2695 165.16 12.043C164.643 11.8125 164.24 11.4961 163.951 11.0938C163.665 10.6914 163.523 10.2227 163.523 9.6875H165.007C165.007 10.1719 165.168 10.5469 165.488 10.8125C165.809 11.0781 166.269 11.2109 166.867 11.2109C167.384 11.2109 167.771 11.1074 168.029 10.9004C168.291 10.6895 168.422 10.4121 168.422 10.0684Z" fill="#2E2E2E"/>
<path d="M176.516 10.0684C176.516 9.69336 176.383 9.4043 176.117 9.20117C175.854 8.99805 175.379 8.79297 174.691 8.58594C174.002 8.37891 173.455 8.14844 173.048 7.89453C172.269 7.40625 171.88 6.76953 171.88 5.98438C171.88 5.29688 172.16 4.73047 172.719 4.28516C173.283 3.83984 174.012 3.61719 174.908 3.61719C175.502 3.61719 176.032 3.72656 176.498 3.94531C176.963 4.16406 177.329 4.47656 177.595 4.88281C177.861 5.28516 177.994 5.73242 177.994 6.22461H176.516C176.516 5.7793 176.375 5.43164 176.093 5.18164C175.815 4.92773 175.416 4.80078 174.896 4.80078C174.411 4.80078 174.034 4.9043 173.764 5.11133C173.498 5.31836 173.365 5.60742 173.365 5.97852C173.365 6.29102 173.509 6.55273 173.799 6.76367C174.088 6.9707 174.566 7.17383 175.231 7.37305C175.896 7.56836 176.429 7.79297 176.832 8.04688C177.235 8.29688 177.531 8.58594 177.718 8.91406C177.906 9.23828 178 9.61914 178 10.0566C178 10.7676 177.726 11.334 177.179 11.7559C176.635 12.1738 175.896 12.3828 174.961 12.3828C174.343 12.3828 173.773 12.2695 173.253 12.043C172.737 11.8125 172.334 11.4961 172.044 11.0938C171.759 10.6914 171.616 10.2227 171.616 9.6875H173.101C173.101 10.1719 173.261 10.5469 173.582 10.8125C173.903 11.0781 174.362 11.2109 174.961 11.2109C175.477 11.2109 175.864 11.1074 176.122 10.9004C176.384 10.6895 176.516 10.4121 176.516 10.0684Z" fill="#2E2E2E"/>
</svg>
