<svg width="310" height="320" viewBox="0 0 310 320" fill="none" xmlns="http://www.w3.org/2000/svg">
<g opacity="0.05">
<path fill-rule="evenodd" clip-rule="evenodd" d="M155.02 140.413C185.12 167.203 209.871 183.537 232.28 192.237C252.202 199.986 270.274 201.628 288.635 199.237L288.519 199.352C287.796 200.101 285.975 201.973 285.483 202.463H285.425L284.558 203.299C272.153 215.023 232.222 245.875 179.684 214.821C179.482 214.692 179.272 214.569 179.063 214.447C178.853 214.324 178.644 214.202 178.441 214.072C178.441 214.076 178.442 214.079 178.442 214.081C178.423 214.072 178.403 214.072 178.383 214.072C163.145 205.027 146.173 190.681 127.783 168.557C92.5649 126.153 61.2503 112.211 43.5546 106.853C39.4487 105.614 36.0657 104.836 33.5502 104.26C56.4505 98.8155 104.391 95.3875 155.02 140.413ZM178.47 214.101C178.47 214.101 178.448 214.101 178.442 214.081C178.452 214.086 178.461 214.092 178.47 214.101ZM252.445 178.81C255.258 176.936 258.397 174.844 262.15 172.331C313.531 137.964 351.409 140.845 365.49 147.816C364.866 147.863 364.192 147.899 363.47 147.938C353.347 148.487 333.482 149.563 301.502 184.92C300.3 186.254 299.227 187.446 298.204 188.583C295.316 191.795 292.816 194.573 288.867 198.891C272.183 198.459 254.719 190.854 245.293 183.595C245.307 183.58 245.329 183.566 245.35 183.552C245.372 183.537 245.394 183.523 245.408 183.508C247.631 182.019 249.905 180.503 252.445 178.81Z" fill="#8C7343"/>
</g>
</svg>
